<?xml version="1.0" encoding="utf-8"?>
<!-- Generator: Adobe Illustrator 19.2.1, SVG Export Plug-In . SVG Version: 6.00 Build 0)  -->
<svg version="1.1" id="Calque_1" xmlns="http://www.w3.org/2000/svg" xmlns:xlink="http://www.w3.org/1999/xlink" x="0px" y="0px"
	 viewBox="0 0 819.3 311.3" style="enable-background:new 0 0 819.3 311.3;" xml:space="preserve">
<style type="text/css">
	.st0{fill:#FFFFFF;}
	.st1{fill:#F3C23D;}
</style>
<g>
	<path class="st0" d="M76.4,238.7c9.6,11.9,22.5,17.9,38.7,17.9s29-5.9,38.5-17.9c9.5-11.9,14.2-28.2,14.2-48.8V47.7h57.5v144
		c0,37.3-10.3,66-30.9,86c-20.6,20-47,30-79.2,30c-32.2,0-58.6-10.1-79.4-30.2c-20.8-20.1-31.1-48.7-31.1-85.8v-144H62v142.2
		C62,210.5,66.8,226.8,76.4,238.7z"/>
	<path class="st0" d="M325.5,201.2v104.1h-52.1V118.6h52.1v20.8c15.7-16,33.4-24,53.1-24c19.7,0,36.2,6.9,49.5,20.8
		c13.3,13.9,20,32.4,20,55.5v113.5H396V199.8c0-28.7-10.5-43-31.6-43c-10.4,0-19.5,3.8-27.3,11.3
		C329.4,175.6,325.5,186.6,325.5,201.2z"/>
	<path class="st0" d="M481.4,121.7h98.2v183.6h-52.1V167.9h-46.2V121.7z"/>
	<path class="st0" d="M687.2,305.3h-52.1V47.7h52.1V180l58-61.8h65.6l-71.2,75.7l73.9,111.4h-61.8l-47.6-71.5l-17,17.7V305.3z"/>
</g>
<circle class="st1" cx="535.7" cy="47.9" r="43.9"/>
</svg>
