<?xml version="1.0" encoding="utf-8"?>
<!-- Generator: Adobe Illustrator 19.2.1, SVG Export Plug-In . SVG Version: 6.00 Build 0)  -->
<svg version="1.1" id="Calque_1" xmlns="http://www.w3.org/2000/svg" xmlns:xlink="http://www.w3.org/1999/xlink" x="0px" y="0px"
	 viewBox="0 0 76.7 89.5" style="enable-background:new 0 0 76.7 89.5;" xml:space="preserve">
<style type="text/css">
	.st0{fill:#FFFFFF;}
	.st1{enable-background:new    ;}
</style>
<g>
	<g>
		<path class="st0" d="M38.3,89c4.9,0,8.9-4,8.9-8.9H29.4C29.4,85,33.4,89,38.3,89z M67,62.4V38.1c0-13.6-9.4-25-22.1-28v-3
			c0-3.7-3-6.6-6.6-6.6s-6.6,3-6.6,6.6v3c-12.7,3-22.1,14.4-22.1,28v24.3l-8.9,8.9v4.4h75.2v-4.4L67,62.4z"/>
	</g>
</g>
<text transform="matrix(1 0 0 1 -13.5 110.8467)" style="font-family:'HelveticaNeue-Bold'; font-size:5px;">Created by Tanya Sharp</text>
<text transform="matrix(1 0 0 1 -13.5 115.8467)" style="font-family:'HelveticaNeue-Bold'; font-size:5px;">from the Noun Project</text>
</svg>
